<svg width="129" height="76" viewBox="0 0 129 76" fill="none" xmlns="http://www.w3.org/2000/svg">
<path d="M19.2303 0.257324C20.3939 0.257324 21.6869 0.257324 22.8505 0.643039L19.2303 7.71447C13.8 7.32875 9.01616 11.7002 8.62828 17.3573C8.3697 23.0145 12.5071 27.9002 18.0667 28.1573H19.2303C21.6869 28.1573 24.0141 27.2573 25.8242 25.7145L29.703 32.5288C26.7293 34.7145 23.1091 36.0002 19.101 36.0002C9.53333 36.2573 1.38788 28.9288 1 18.9002C0.741414 9.00018 7.98182 0.643039 17.6788 0.257324H19.2303Z" fill="#1D1D1B"/>
<path d="M23.1091 15.5571L18.5839 23.2714H27.3758L31.5132 30.7286L36.0384 23.2714L31.5132 15.5571H23.1091Z" fill="#1D1D1B"/>
<path d="M24.2727 12.7287C24.2727 11.443 24.5313 10.2858 25.1778 9.25725C25.8242 8.35725 26.9879 7.32868 27.8929 6.8144L28.5394 6.42868C29.703 5.78583 30.0909 5.52868 30.0909 4.88583C30.0909 4.24297 29.1858 3.60011 28.5394 3.60011C27.3757 3.60011 26.3414 4.24297 25.8242 5.52868L24.2727 4.1144C24.5313 3.47154 25.1778 2.82868 25.8242 2.18583C26.7293 1.54297 27.6343 1.54297 28.5394 1.54297C29.4444 1.54297 30.7374 1.92868 31.2545 2.44297C31.7717 3.08583 32.4182 3.98583 32.4182 4.88583C32.4182 6.42868 31.5131 7.7144 29.703 8.35725L28.798 9.00011C27.8929 9.64297 27.2464 9.90011 26.9879 10.9287H32.4182V13.1144C32.4182 12.9858 24.2727 12.7287 24.2727 12.7287Z" fill="#1D1D1B"/>
<path fill-rule="evenodd" clip-rule="evenodd" d="M10.9742 56L8.5708 63.3134H1L7.24891 67.9788L4.84548 75.4183L10.9742 70.7528L17.2231 75.4183L14.8197 67.9788L20.9485 63.3134H13.3777L10.9742 56Z" fill="black"/>
<path fill-rule="evenodd" clip-rule="evenodd" d="M37.2936 56L34.8902 63.3134H27.1992L33.328 67.9788L31.0447 75.4183L37.2936 70.7528L43.4224 75.4183L41.0189 67.9788L47.2678 63.3134H39.5769L37.2936 56Z" fill="black"/>
<path fill-rule="evenodd" clip-rule="evenodd" d="M64.5719 56L62.1685 63.3134H54.5977L60.8466 67.9788L58.4431 75.4183L64.5719 70.7528L70.8208 75.4183L68.4174 67.9788L74.5461 63.3134H66.9753L64.5719 56Z" fill="black"/>
<path fill-rule="evenodd" clip-rule="evenodd" d="M91.9703 56L89.6871 63.3134H81.9961L88.1248 67.9788L85.7214 75.4183L91.9703 70.7528L98.0991 75.4183L95.8158 67.9788L102.065 63.3134H94.3738L91.9703 56Z" fill="black"/>
<path fill-rule="evenodd" clip-rule="evenodd" d="M118.166 56L115.762 63.3134H108.191L114.32 67.9788L112.037 75.4183L118.166 70.7528L124.415 75.4183L122.011 67.9788L128.14 63.3134H120.449L118.166 56Z" fill="black"/>
</svg>
